<svg width="24" height="24" viewBox="0 0 24 24" fill="none" xmlns="http://www.w3.org/2000/svg">
<path fill-rule="evenodd" clip-rule="evenodd" d="M21.0005 6.6738C21.0005 8.7024 19.3553 10.3476 17.3267 10.3476C15.2981 10.3476 13.6538 8.7024 13.6538 6.6738C13.6538 4.6452 15.2981 3 17.3267 3C19.3553 3 21.0005 4.6452 21.0005 6.6738Z" fill="#F9B023" stroke="#F9B023" stroke-width="1.5" stroke-linecap="round" stroke-linejoin="round"/>
<path fill-rule="evenodd" clip-rule="evenodd" d="M10.3467 6.6738C10.3467 8.7024 8.7024 10.3476 6.6729 10.3476C4.6452 10.3476 3 8.7024 3 6.6738C3 4.6452 4.6452 3 6.6729 3C8.7024 3 10.3467 4.6452 10.3467 6.6738Z" fill="#F9B023" stroke="#F9B023" stroke-width="1.5" stroke-linecap="round" stroke-linejoin="round"/>
<path fill-rule="evenodd" clip-rule="evenodd" d="M21.0005 17.2636C21.0005 19.2922 19.3553 20.9365 17.3267 20.9365C15.2981 20.9365 13.6538 19.2922 13.6538 17.2636C13.6538 15.235 15.2981 13.5898 17.3267 13.5898C19.3553 13.5898 21.0005 15.235 21.0005 17.2636Z" fill="#F9B023" stroke="#F9B023" stroke-width="1.5" stroke-linecap="round" stroke-linejoin="round"/>
<path fill-rule="evenodd" clip-rule="evenodd" d="M10.3467 17.2636C10.3467 19.2922 8.7024 20.9365 6.6729 20.9365C4.6452 20.9365 3 19.2922 3 17.2636C3 15.235 4.6452 13.5898 6.6729 13.5898C8.7024 13.5898 10.3467 15.235 10.3467 17.2636Z" fill="#F9B023" stroke="#F9B023" stroke-width="1.5" stroke-linecap="round" stroke-linejoin="round"/>
</svg>
