<svg width="24" height="24" viewBox="0 0 24 24" fill="none" xmlns="http://www.w3.org/2000/svg">
<path fill-rule="evenodd" clip-rule="evenodd" d="M2.87187 11.5983C1.79887 8.24832 3.05287 4.41932 6.56987 3.28632C8.41987 2.68932 10.4619 3.04132 11.9999 4.19832C13.4549 3.07332 15.5719 2.69332 17.4199 3.28632C20.9369 4.41932 22.1989 8.24832 21.1269 11.5983C19.4569 16.9083 11.9999 20.9983 11.9999 20.9983C11.9999 20.9983 4.59787 16.9703 2.87187 11.5983ZM15.2864 6.46846C15.4138 6.07434 15.8366 5.85816 16.2308 5.9856C17.5891 6.42483 18.549 7.63743 18.6645 9.06054C18.6981 9.47339 18.3905 9.83525 17.9777 9.86876C17.5648 9.90227 17.203 9.59476 17.1695 9.1819C17.103 8.36301 16.5509 7.6656 15.7692 7.41284C15.3751 7.28539 15.1589 6.86258 15.2864 6.46846Z" fill="#F9B023"/>
</svg>
